<?xml version="1.0" encoding="utf-8"?>
<!-- Generator: Adobe Illustrator 24.0.0, SVG Export Plug-In . SVG Version: 6.00 Build 0)  -->
<svg version="1.1" id="Layer_1" xmlns="http://www.w3.org/2000/svg" xmlns:xlink="http://www.w3.org/1999/xlink" x="0px" y="0px"
	 viewBox="0 0 595.28 595.28" style="enable-background:new 0 0 595.28 595.28;" xml:space="preserve">
<style type="text/css">
	.st0{fill:#DD8F9F;}
	.st1{fill:none;}
	.st2{fill:url(#SVGID_1_);}
	.st3{fill:#C67780;}
	.st4{fill:url(#SVGID_2_);}
	.st5{fill:#F38BAA;}
</style>
<path class="st0" d="M206.59,285.12c-9.04-54.09,16.84-87.96,16.84-87.96s52.55-21.46,60.76,2.44s-20.37,42.59-36.09,49.66
	S206.59,285.12,206.59,285.12z"/>
<g>
	<path class="st0" d="M178.34,392.75c0.37-0.3,0.72-0.45,1.05-0.45c0.57,0,1.33,0.5,2.3,1.5c0.97,1.03,2.73,3.56,5.29,7.59
		c1.9,2.96,3.03,4.69,3.4,5.19l0.5,0.75l1.75-2.7c3.03-4.69,5.09-7.8,6.19-9.31c1.1-1.51,1.96-2.44,2.6-2.77
		c0.4-0.17,0.75-0.25,1.05-0.25c0.37,0,0.7,0.15,1,0.45l0.5,0.45v28.17l-0.45,0.45c-0.3,0.3-0.65,0.45-1.05,0.45
		c-0.37,0-0.72-0.15-1.05-0.45l-0.4-0.45c0-2.66-0.02-6.67-0.05-12.01c-0.03-5.34-0.05-9.35-0.05-12.01l-1.35,1.95
		c-0.5,0.8-1.43,2.26-2.8,4.39c-2.3,3.7-3.8,5.84-4.49,6.44c-0.33,0.3-0.82,0.47-1.45,0.5c-0.4,0-0.69-0.07-0.87-0.2
		c-0.18-0.13-0.52-0.45-1.02-0.95c-0.73-0.8-2.2-2.95-4.39-6.44c-2.3-3.6-3.5-5.34-3.6-5.24c-0.13,0.07-0.2,4.03-0.2,11.88
		c0,5.73-0.02,9.14-0.05,10.24c-0.03,1.1-0.13,1.75-0.3,1.95c-0.23,0.27-0.61,0.4-1.12,0.4c-0.52,0-0.89-0.13-1.12-0.4
		c-0.17-0.2-0.27-0.95-0.3-2.25c-0.03-1.3-0.05-5.39-0.05-12.29V393.2L178.34,392.75z"/>
	<path class="st0" d="M220.12,392.45c0.23-0.1,3.05-0.15,8.44-0.15h3.84c2.83,0,4.39,0.12,4.69,0.35c0.33,0.23,0.52,0.62,0.55,1.15
		c0,0.43-0.15,0.78-0.45,1.05c-0.17,0.17-0.59,0.27-1.27,0.3c-0.68,0.03-2.8,0.05-6.37,0.05h-7.34v11.14h10.84l0.45,0.5
		c0.27,0.37,0.4,0.7,0.4,1c0,0.5-0.28,0.88-0.85,1.15c-0.27,0.17-2.17,0.25-5.69,0.25h-5.14v10.09h7.19c3.5,0,5.59,0.02,6.29,0.05
		s1.17,0.15,1.4,0.35c0.33,0.23,0.52,0.6,0.55,1.1c0,0.43-0.15,0.8-0.45,1.1c-0.17,0.17-0.63,0.27-1.4,0.3
		c-0.77,0.03-3.2,0.05-7.29,0.05c-4.16,0-6.61-0.02-7.34-0.05s-1.22-0.15-1.45-0.35l-0.45-0.4v-14.03c0-9.39,0.07-14.2,0.2-14.43
		C219.61,392.76,219.83,392.58,220.12,392.45z"/>
	<path class="st0" d="M253.67,392.4c0.3-0.27,1.03-0.4,2.2-0.4c1.03,0,1.95,0.02,2.75,0.05c2.9,0.03,4.73,0.17,5.49,0.4
		c3.16,0.9,5.38,2.61,6.64,5.14c0.43,0.9,0.67,1.93,0.7,3.1c0,3.1-1.4,5.38-4.2,6.84l-1.45,0.7l3.1,6.09c1.96,3.86,2.96,6.06,3,6.59
		c0,0.27-0.27,0.62-0.8,1.05c-0.33,0.27-0.72,0.32-1.15,0.15c-0.27-0.1-0.61-0.5-1.02-1.2c-0.42-0.7-1.31-2.41-2.67-5.14
		c-2.06-4.09-3.28-6.24-3.65-6.44c-0.43-0.2-1.6-0.3-3.5-0.3h-3l-0.1,6.19l-0.05,6.14l-0.55,0.45c-0.37,0.3-0.67,0.45-0.92,0.45
		c-0.25,0-0.54-0.12-0.87-0.35l-0.5-0.4V392.8L253.67,392.4z M264.06,395.49c-0.77-0.23-2.31-0.4-4.64-0.5l-3.35-0.1v11.14h2.8
		c2.3,0,4.06-0.16,5.29-0.47c1.23-0.32,2.25-0.87,3.05-1.67c0.9-0.9,1.33-1.93,1.3-3.1c0-1.1-0.4-2.15-1.2-3.15
		S265.43,395.93,264.06,395.49z"/>
	<path class="st0" d="M295.56,392.5c0.3-0.2,0.58-0.3,0.85-0.3c0.2,0,0.52,0.08,0.95,0.25c0.96,0.5,2.13,3.1,3.5,7.79
		c0.73,2.46,1.71,6.34,2.95,11.64c1.23,5.29,1.85,8.26,1.85,8.89c0,0.33-0.16,0.65-0.47,0.95c-0.32,0.3-0.64,0.45-0.97,0.45
		c-0.53,0-0.92-0.24-1.17-0.72c-0.25-0.48-0.61-1.84-1.07-4.07c-0.63-2.86-0.97-4.31-1.02-4.34s-0.52-0.05-1.42-0.05h-3.2
		l-4.44,0.05l-0.85,4.19c-0.4,2.03-0.72,3.35-0.97,3.95s-0.57,0.95-0.97,1.05h-0.1c-0.07,0.03-0.12,0.05-0.15,0.05
		c-0.33,0-0.67-0.12-1-0.35c-0.33-0.23-0.5-0.52-0.5-0.85c0-1.46,1.02-6.33,3.05-14.58c1.46-5.89,2.66-9.84,3.6-11.84
		C294.46,393.61,295,392.9,295.56,392.5z M297.86,400.49c-0.37-1.37-0.73-2.43-1.1-3.2l-0.4-0.9l-0.35,1.1
		c-0.53,1.4-1.35,4.23-2.45,8.49c-0.1,0.5-0.23,1.06-0.4,1.67c-0.17,0.62-0.3,1.09-0.4,1.42s-0.15,0.53-0.15,0.6
		c0,0.17,1.26,0.25,3.79,0.25c2.6,0,3.9-0.03,3.9-0.1c0-0.17-0.33-1.51-1-4.04S298.16,401.49,297.86,400.49z"/>
	<path class="st0" d="M321.87,392.75c0.37-0.3,0.71-0.45,1.05-0.45c0.57,0,1.33,0.5,2.3,1.5c0.96,1.03,2.73,3.56,5.29,7.59
		c1.9,2.96,3.03,4.69,3.4,5.19l0.5,0.75l1.75-2.7c3.03-4.69,5.09-7.8,6.19-9.31c1.1-1.51,1.96-2.44,2.6-2.77
		c0.4-0.17,0.75-0.25,1.05-0.25c0.37,0,0.7,0.15,1,0.45l0.5,0.45v28.17l-0.45,0.45c-0.3,0.3-0.65,0.45-1.05,0.45
		c-0.37,0-0.72-0.15-1.05-0.45l-0.4-0.45c0-2.66-0.02-6.67-0.05-12.01c-0.03-5.34-0.05-9.35-0.05-12.01l-1.35,1.95
		c-0.5,0.8-1.43,2.26-2.8,4.39c-2.3,3.7-3.79,5.84-4.49,6.44c-0.33,0.3-0.82,0.47-1.45,0.5c-0.4,0-0.69-0.07-0.87-0.2
		c-0.18-0.13-0.52-0.45-1.02-0.95c-0.73-0.8-2.2-2.95-4.39-6.44c-2.3-3.6-3.5-5.34-3.6-5.24c-0.13,0.07-0.2,4.03-0.2,11.88
		c0,5.73-0.02,9.14-0.05,10.24s-0.13,1.75-0.3,1.95c-0.23,0.27-0.61,0.4-1.12,0.4c-0.52,0-0.89-0.13-1.12-0.4
		c-0.17-0.2-0.27-0.95-0.3-2.25c-0.03-1.3-0.05-5.39-0.05-12.29V393.2L321.87,392.75z"/>
	<path class="st0" d="M363.31,392.6c0.3-0.3,0.65-0.45,1.05-0.45c0.3,0,0.57,0.1,0.8,0.3c0.23,0.2,0.87,1.45,1.9,3.75
		c2.26,4.93,3.84,7.81,4.74,8.64c0.23,0.2,0.52,0.1,0.85-0.3c1.3-1.6,2.91-4.64,4.84-9.14c0.97-2.2,1.76-3.28,2.4-3.25
		c0.33,0,0.67,0.17,1,0.5c0.3,0.23,0.47,0.5,0.5,0.8c0,0.37-0.35,1.32-1.05,2.85c-2.43,5.43-4.39,8.96-5.89,10.59l-0.95,1.05v6.69
		c0,3.83-0.06,6.06-0.17,6.69c-0.12,0.63-0.52,0.95-1.22,0.95c-0.5,0-0.88-0.17-1.15-0.5c-0.2-0.23-0.32-0.67-0.35-1.32
		c-0.03-0.65-0.05-2.6-0.05-5.87v-6.59l-1-1.2c-0.67-0.8-1.27-1.65-1.8-2.55c-0.87-1.43-1.91-3.48-3.12-6.14
		c-1.22-2.66-1.82-4.21-1.82-4.64C362.81,393.21,362.98,392.93,363.31,392.6z"/>
	<path class="st0" d="M401.4,392.75c0.6-0.17,1.54-0.25,2.82-0.25c1.28,0,2.24,0.08,2.87,0.25c0.8,0.17,1.76,0.53,2.87,1.1
		s1.81,1.02,2.07,1.35c0.23,0.27,0.37,0.6,0.4,1c0,0.33-0.16,0.65-0.47,0.95s-0.61,0.45-0.87,0.45c-0.33,0-0.97-0.25-1.9-0.75
		c-1.57-0.9-3.27-1.35-5.12-1.35s-3.39,0.48-4.62,1.45c-0.93,0.67-1.4,1.52-1.4,2.55c0,0.03,0.01,0.09,0.03,0.17
		c0.02,0.08,0.02,0.14,0.02,0.17c0.17,0.9,0.7,1.82,1.6,2.77c0.9,0.95,2.05,1.82,3.45,2.62c2.83,1.63,4.89,3.08,6.19,4.34
		c1.3,1.27,2.16,2.66,2.6,4.2c0.13,0.43,0.22,0.97,0.25,1.6c0,1.73-0.7,3.25-2.1,4.54c-1.67,1.56-3.89,2.35-6.69,2.35
		c-3.06,0-5.58-1.1-7.54-3.3c-1.23-1.4-1.85-2.6-1.85-3.6c0-0.47,0.13-0.8,0.4-1c0.33-0.23,0.67-0.35,1-0.35
		c0.63,0,1.2,0.52,1.7,1.55c0.3,0.63,0.74,1.23,1.32,1.8c0.58,0.57,1.21,1,1.87,1.3c0.73,0.3,1.8,0.47,3.2,0.5
		c1.5,0,2.6-0.2,3.3-0.6c1.4-0.77,2.18-1.67,2.35-2.7c0.03-0.13,0.05-0.3,0.05-0.5c0-0.33-0.17-0.87-0.5-1.6
		c-0.87-1.67-2.86-3.43-5.99-5.29c-2.83-1.66-4.79-3.16-5.87-4.49s-1.62-2.85-1.62-4.54c0-0.93,0.2-1.78,0.6-2.55
		c0.47-1,1.2-1.86,2.2-2.6S400.14,393.05,401.4,392.75z"/>
	<path class="st0" d="M425.66,392.55c0.23-0.2,0.73-0.32,1.5-0.35c0.76-0.03,3.18-0.05,7.24-0.05h8.24l0.45,0.45
		c0.33,0.33,0.52,0.72,0.55,1.15c0,0.37-0.14,0.68-0.42,0.95c-0.28,0.27-1.57,0.4-3.87,0.4h-3.45v13.13
		c0,6.53-0.02,10.37-0.05,11.54c-0.03,1.17-0.15,1.85-0.35,2.05c-0.3,0.3-0.67,0.45-1.1,0.45s-0.8-0.15-1.1-0.45
		c-0.2-0.2-0.32-0.88-0.35-2.05c-0.03-1.17-0.05-5.01-0.05-11.54v-13.13h-3.45c-2.33,0-3.63-0.13-3.9-0.4c-0.27-0.27-0.4-0.6-0.4-1
		C425.16,393.16,425.33,392.78,425.66,392.55z"/>
</g>
<path class="st1" d="M310.71,310.23"/>
<g>
	<linearGradient id="SVGID_1_" gradientUnits="userSpaceOnUse" x1="206.5936" y1="245.1437" x2="312.0388" y2="245.1437">
		<stop  offset="0.0542" style="stop-color:#EEA7AD"/>
		<stop  offset="0.3039" style="stop-color:#FAB69F"/>
		<stop  offset="0.475" style="stop-color:#FBC8B4"/>
		<stop  offset="0.7262" style="stop-color:#F5C0C0"/>
		<stop  offset="0.9894" style="stop-color:#EDA2A9"/>
	</linearGradient>
	<path class="st2" d="M302.84,186.68c-6.4-7.84-16.97-13.61-33.03-13.61c-5.7,0-26.7,7.32-45.91,21.95
		c-1.53,1.16-0.23,3.56,1.57,2.9c13.99-5.14,38.95-11.99,48.93-0.07c14.23,16.98-5.97,33.04-5.97,33.04s-17.44,15.14-34.88,25.7
		c-17.44,10.55-26.96,28.53-26.96,28.53l9.23,32.11c-0.48-2.16-0.06-0.22,1.55-5.64c8.02-26.96,52.31-50.94,52.31-50.94
		s43.18-23.75,42.25-49.53C313.14,202.5,302.84,186.68,302.84,186.68z"/>
</g>
<path class="st3" d="M274.84,340.12c-9.3-7.13-22.57-19.83-25.48-35.85c-3.83-21.05,0.57-29.48,2.14-31.7l0.51-0.64
	c-32.86,18.2-36.19,45.3-36.19,45.3c4.03,18.23,30.79,34.64,45.48,42.41c5.44,2.88,12.13,1.37,15.8-3.56
	C280.86,351.03,279.83,343.94,274.84,340.12z"/>
<path class="st0" d="M399.89,285.12c9.04-54.09-16.84-87.96-16.84-87.96s-52.55-21.46-60.76,2.44s20.37,42.59,36.09,49.66
	C374.09,256.32,399.89,285.12,399.89,285.12z"/>
<g>
	
		<linearGradient id="SVGID_2_" gradientUnits="userSpaceOnUse" x1="116.8279" y1="245.1437" x2="222.2731" y2="245.1437" gradientTransform="matrix(-1 0 0 1 516.7177 0)">
		<stop  offset="0.0542" style="stop-color:#EEA7AD"/>
		<stop  offset="0.3039" style="stop-color:#FAB69F"/>
		<stop  offset="0.475" style="stop-color:#FBC8B4"/>
		<stop  offset="0.7262" style="stop-color:#F5C0C0"/>
		<stop  offset="0.9894" style="stop-color:#EDA2A9"/>
	</linearGradient>
	<path class="st4" d="M303.65,186.68c6.4-7.84,16.97-13.61,33.03-13.61c5.7,0,26.7,7.32,45.91,21.95c1.53,1.16,0.23,3.56-1.57,2.9
		c-13.99-5.14-38.95-11.99-48.93-0.07c-14.23,16.98,5.97,33.04,5.97,33.04s17.44,15.14,34.88,25.7
		c17.44,10.55,26.96,28.53,26.96,28.53l-9.23,32.11c0.48-2.16,0.06-0.22-1.55-5.64c-8.02-26.96-52.31-50.94-52.31-50.94
		s-43.18-23.75-42.25-49.53C293.34,202.5,303.65,186.68,303.65,186.68z"/>
</g>
<path class="st3" d="M331.64,340.12c9.3-7.13,22.57-19.83,25.48-35.85c3.83-21.05-0.57-29.48-2.14-31.7l-0.51-0.64
	c32.86,18.2,36.19,45.3,36.19,45.3c-4.03,18.23-30.79,34.64-45.48,42.41c-5.44,2.88-12.13,1.37-15.8-3.56
	C325.63,351.03,326.65,343.94,331.64,340.12z"/>
<path class="st5" d="M303.15,187.37c0,0,17.34,17.55,0.1,45.79C303.24,233.16,282.47,215.56,303.15,187.37z"/>
</svg>
