<svg id="Layer_1" data-name="Layer 1" xmlns="http://www.w3.org/2000/svg" xmlns:xlink="http://www.w3.org/1999/xlink" viewBox="0 0 250 250"><defs><style>.cls-1{fill:#dd8f9f;}.cls-2{fill:url(#linear-gradient);}.cls-3{fill:#c67780;}.cls-4{fill:url(#linear-gradient-2);}.cls-5{fill:#f38baa;}</style><linearGradient id="linear-gradient" x1="44.82" y1="83.29" x2="126.52" y2="83.29" gradientUnits="userSpaceOnUse"><stop offset="0.05" stop-color="#eea7ad"/><stop offset="0.3" stop-color="#fab69f"/><stop offset="0.47" stop-color="#fbc8b4"/><stop offset="0.73" stop-color="#f5c0c0"/><stop offset="0.99" stop-color="#eda2a9"/></linearGradient><linearGradient id="linear-gradient-2" x1="-23.14" y1="83.29" x2="58.56" y2="83.29" gradientTransform="matrix(-1, 0, 0, 1, 171.44, 0)" xlink:href="#linear-gradient"/></defs><title>logo</title><path class="cls-1" d="M44.82,114.26c-7-41.91,13-68.15,13-68.15S98.58,29.48,104.94,48,89.16,81,77,86.48,44.82,114.26,44.82,114.26Z"/><path class="cls-1" d="M22.92,197.66a1.29,1.29,0,0,1,.81-.35c.44,0,1,.39,1.78,1.16a50.82,50.82,0,0,1,4.11,5.88c1.47,2.3,2.34,3.64,2.63,4l.38.58L34,206.87q3.51-5.46,4.8-7.22a7.7,7.7,0,0,1,2-2.15,2.13,2.13,0,0,1,.81-.19,1,1,0,0,1,.77.35l.39.34v21.83l-.35.35a1.1,1.1,0,0,1-.81.34,1.21,1.21,0,0,1-.81-.34l-.31-.35q0-3.11,0-9.31t0-9.3l-1,1.51c-.39.61-1.11,1.75-2.17,3.4a31,31,0,0,1-3.48,5,1.83,1.83,0,0,1-1.12.39,1.12,1.12,0,0,1-.68-.16,8,8,0,0,1-.8-.73,47.34,47.34,0,0,1-3.4-5,28.22,28.22,0,0,0-2.79-4.07q-.15.09-.15,9.21c0,4.44,0,7.08,0,7.94a3.37,3.37,0,0,1-.23,1.5,1.38,1.38,0,0,1-1.74,0,4.19,4.19,0,0,1-.24-1.74c0-1,0-4.18,0-9.52V198Z"/><path class="cls-1" d="M55.3,197.42q.27-.1,6.54-.11h3a11.64,11.64,0,0,1,3.64.27,1.11,1.11,0,0,1,.42.89,1,1,0,0,1-.35.81,1.62,1.62,0,0,1-1,.23c-.53,0-2.18,0-4.94,0H56.93v8.63h8.39l.35.39a1.32,1.32,0,0,1,.31.77,1,1,0,0,1-.66.89,21.76,21.76,0,0,1-4.41.2h-4v7.81H62.5c2.71,0,4.33,0,4.87,0a2,2,0,0,1,1.09.27,1.07,1.07,0,0,1,.42.85,1.12,1.12,0,0,1-.35.85,1.94,1.94,0,0,1-1.08.24c-.59,0-2.48,0-5.65,0s-5.12,0-5.69,0a2,2,0,0,1-1.12-.28l-.35-.3V209q0-10.9.16-11.18A1.07,1.07,0,0,1,55.3,197.42Z"/><path class="cls-1" d="M81.29,197.39a2.93,2.93,0,0,1,1.71-.31q1.2,0,2.13,0a20.65,20.65,0,0,1,4.25.31,7.8,7.8,0,0,1,5.15,4,6,6,0,0,1,.54,2.4,5.6,5.6,0,0,1-3.25,5.3l-1.12.54,2.4,4.72a30.58,30.58,0,0,1,2.32,5.11c0,.21-.21.48-.62.81a.84.84,0,0,1-.89.12c-.21-.08-.47-.39-.79-.93s-1-1.87-2.07-4c-1.6-3.17-2.55-4.83-2.83-5a9.12,9.12,0,0,0-2.71-.23H83.19l-.08,4.8,0,4.76-.42.35a1.24,1.24,0,0,1-.72.34,1.21,1.21,0,0,1-.67-.27l-.39-.31V197.7Zm8,2.39a17.31,17.31,0,0,0-3.6-.38l-2.59-.08V208h2.17a17.15,17.15,0,0,0,4.1-.37,5,5,0,0,0,2.36-1.3,3.15,3.15,0,0,0,1-2.39,3.83,3.83,0,0,0-.93-2.44A5.11,5.11,0,0,0,89.34,199.78Z"/><path class="cls-1" d="M113.75,197.46a1.22,1.22,0,0,1,.66-.23,2.58,2.58,0,0,1,.73.19q1.13.59,2.71,6c.57,1.91,1.33,4.91,2.28,9a69.33,69.33,0,0,1,1.44,6.88,1,1,0,0,1-.37.74,1.13,1.13,0,0,1-.76.35,1,1,0,0,1-.9-.56,16.82,16.82,0,0,1-.84-3.16c-.49-2.22-.75-3.34-.79-3.36a6.08,6.08,0,0,0-1.1,0h-2.48l-3.44,0-.66,3.25a19,19,0,0,1-.76,3,1.22,1.22,0,0,1-.75.82h-.08l-.11,0a1.36,1.36,0,0,1-.78-.27.77.77,0,0,1-.38-.65q0-1.71,2.36-11.3a59.47,59.47,0,0,1,2.78-9.17A4.33,4.33,0,0,1,113.75,197.46Zm1.78,6.19a15,15,0,0,0-.85-2.47l-.31-.7-.27.85c-.41,1.09-1,3.28-1.9,6.58-.07.39-.18.82-.31,1.3s-.23.84-.31,1.1a3.41,3.41,0,0,0-.11.46c0,.13,1,.2,2.94.2a22.18,22.18,0,0,0,3-.08c0-.13-.26-1.17-.78-3.13S115.76,204.43,115.53,203.65Z"/><path class="cls-1" d="M134.14,197.66a1.25,1.25,0,0,1,.81-.35c.44,0,1,.39,1.78,1.16a52.59,52.59,0,0,1,4.1,5.88q2.21,3.45,2.63,4l.39.58,1.35-2.08q3.53-5.46,4.8-7.22a7.7,7.7,0,0,1,2-2.15,2.13,2.13,0,0,1,.81-.19,1,1,0,0,1,.78.35l.38.34v21.83l-.34.35a1.14,1.14,0,0,1-.82.34,1.21,1.21,0,0,1-.81-.34l-.31-.35q0-3.11,0-9.31c0-4.14,0-7.24,0-9.3l-1,1.51c-.39.61-1.11,1.75-2.17,3.4a31,31,0,0,1-3.48,5,1.81,1.81,0,0,1-1.12.39,1.12,1.12,0,0,1-.68-.16,7.19,7.19,0,0,1-.79-.73,46.8,46.8,0,0,1-3.41-5,30,30,0,0,0-2.78-4.07q-.17.09-.16,9.21c0,4.44,0,7.08,0,7.94a3.23,3.23,0,0,1-.23,1.5,1.38,1.38,0,0,1-1.74,0,4.09,4.09,0,0,1-.23-1.74c0-1,0-4.18,0-9.52V198Z"/><path class="cls-1" d="M166.24,197.54a1.13,1.13,0,0,1,.81-.35.93.93,0,0,1,.62.23,16.9,16.9,0,0,1,1.47,2.91c1.76,3.81,3,6,3.68,6.69.18.16.4.08.66-.23a33.4,33.4,0,0,0,3.75-7.08c.75-1.71,1.37-2.54,1.86-2.52a1.1,1.1,0,0,1,.77.39,1,1,0,0,1,.39.62,8.38,8.38,0,0,1-.81,2.2q-2.83,6.32-4.57,8.21l-.73.81v5.18a50,50,0,0,1-.14,5.19.85.85,0,0,1-.95.73,1.08,1.08,0,0,1-.89-.38,1.88,1.88,0,0,1-.27-1c0-.5,0-2,0-4.54v-5.11l-.77-.93a14.9,14.9,0,0,1-1.39-2,49.17,49.17,0,0,1-2.42-4.76,17.76,17.76,0,0,1-1.41-3.6A1,1,0,0,1,166.24,197.54Z"/><path class="cls-1" d="M195.76,197.66a8.74,8.74,0,0,1,2.18-.2,9.32,9.32,0,0,1,2.23.2,9.18,9.18,0,0,1,2.22.85,5.58,5.58,0,0,1,1.61,1,1.36,1.36,0,0,1,.31.78,1,1,0,0,1-.37.73,1,1,0,0,1-.68.35,4.15,4.15,0,0,1-1.47-.58,7.77,7.77,0,0,0-4-1.05,5.61,5.61,0,0,0-3.58,1.13,2.34,2.34,0,0,0-1.09,2s0,.07,0,.14a.4.4,0,0,1,0,.13,4.38,4.38,0,0,0,1.24,2.15,11.84,11.84,0,0,0,2.67,2,25.1,25.1,0,0,1,4.8,3.37,7.19,7.19,0,0,1,2,3.25,5,5,0,0,1,.19,1.23,4.68,4.68,0,0,1-1.62,3.53,7.28,7.28,0,0,1-5.19,1.81,7.49,7.49,0,0,1-5.84-2.55,4.63,4.63,0,0,1-1.43-2.79.9.9,0,0,1,.31-.77,1.36,1.36,0,0,1,.77-.27q.73,0,1.32,1.2a4.68,4.68,0,0,0,1,1.39,4.94,4.94,0,0,0,1.45,1,7.17,7.17,0,0,0,2.47.38,5.41,5.41,0,0,0,2.56-.46,3.07,3.07,0,0,0,1.81-2.09,1.41,1.41,0,0,0,0-.39,3.61,3.61,0,0,0-.38-1.23q-1-1.94-4.65-4.11a17,17,0,0,1-4.54-3.48,5.41,5.41,0,0,1-1.26-3.52,4.18,4.18,0,0,1,.46-2,5.1,5.1,0,0,1,1.71-2A7.1,7.1,0,0,1,195.76,197.66Z"/><path class="cls-1" d="M214.55,197.5a2.19,2.19,0,0,1,1.17-.27c.59,0,2.46,0,5.61,0h6.38l.35.35a1.35,1.35,0,0,1,.42.89,1,1,0,0,1-.32.74q-.33.3-3,.3h-2.67v10.18c0,5.06,0,8,0,8.94a3.25,3.25,0,0,1-.27,1.59,1.16,1.16,0,0,1-.85.34,1.18,1.18,0,0,1-.86-.34,3.25,3.25,0,0,1-.27-1.59q0-1.35,0-8.94V199.47H217.5c-1.81,0-2.82-.1-3-.3a1.06,1.06,0,0,1-.31-.78A1,1,0,0,1,214.55,197.5Z"/><path class="cls-2" d="M119.39,38c-5-6.07-13.15-10.55-25.6-10.55-4.42,0-20.68,5.67-35.57,17a1.29,1.29,0,0,0,1.22,2.25c10.83-4,30.17-9.29,37.91-.06,11,13.16-4.62,25.6-4.62,25.6S79.22,84,65.7,92.16s-20.88,22.1-20.88,22.1L52,139.14c-.37-1.67,0-.17,1.2-4.37C59.38,113.88,93.7,95.3,93.7,95.3s33.46-18.4,32.74-38.38C127.37,50.25,119.39,38,119.39,38Z"/><path class="cls-3" d="M97.7,156.88C90.49,151.35,80.21,141.51,78,129.1c-3-16.31.45-22.84,1.66-24.56l.4-.5c-25.46,14.1-28,35.1-28,35.1C55.09,153.26,75.82,166,87.21,172a9.62,9.62,0,0,0,12.24-2.76A8.88,8.88,0,0,0,97.7,156.88Z"/><path class="cls-1" d="M194.59,114.26c7-41.91-13.05-68.15-13.05-68.15S140.82,29.48,134.46,48s15.78,33,28,38.48S194.59,114.26,194.59,114.26Z"/><path class="cls-4" d="M120,38c5-6.07,13.14-10.55,25.59-10.55,4.42,0,20.69,5.67,35.57,17A1.29,1.29,0,0,1,180,46.7c-10.84-4-30.18-9.29-37.92-.06-11,13.16,4.62,25.6,4.62,25.6s13.52,11.74,27,19.92,20.89,22.1,20.89,22.1l-7.15,24.88c.36-1.67,0-.17-1.21-4.37C180,113.88,145.7,95.3,145.7,95.3S112.24,76.9,113,56.92C112,50.25,120,38,120,38Z"/><path class="cls-3" d="M141.71,156.88c7.2-5.53,17.48-15.37,19.74-27.78,3-16.31-.45-22.84-1.66-24.56l-.4-.5c25.47,14.1,28.05,35.1,28.05,35.1C184.31,153.26,163.58,166,152.2,172A9.63,9.63,0,0,1,140,169.24,8.87,8.87,0,0,1,141.71,156.88Z"/><path class="cls-5" d="M119.63,38.53s13.43,13.6.07,35.48C119.7,74,103.61,60.37,119.63,38.53Z"/></svg>