<svg id="Layer_1" data-name="Layer 1" xmlns="http://www.w3.org/2000/svg" viewBox="0 0 85 85"><defs><style>.cls-1{fill:#00aeef;}</style></defs><title>intelligence</title><path class="cls-1" d="M78.63,27.37a4.38,4.38,0,0,0-5.25,3.29l-5.06,22-38.15-.35L21,15.56a4.39,4.39,0,0,0-2.14-2.78L10.48,8.19a4.38,4.38,0,1,0-4.22,7.68l6.67,3.67L22.3,57l-5.05,4a2.52,2.52,0,0,0-.95,2V69.2a2.5,2.5,0,0,0,2.47,2.5l7.07.1a5,5,0,1,0,6.92.1l33.05.47a5,5,0,1,0,8.92,3.09,4.91,4.91,0,0,0-1-3l4.31.06h0a2.51,2.51,0,0,0,0-5l-56.79-.8V64.15l4.17-3.28a4.43,4.43,0,0,0,1.21.19l45.07.42h0a4.38,4.38,0,0,0,4.27-3.4l5.84-25.46A4.38,4.38,0,0,0,78.63,27.37Z"/><path class="cls-1" d="M59.67,29.15H55.59V17.36A2.61,2.61,0,0,0,53,14.74H45.13a2.62,2.62,0,0,0-2.62,2.62V29.15H38.44c-1.81,0-2.4,1.18-1.32,2.63l3,4.06c1.08,1.45,2.84,3.81,3.91,5.26l3,4.07a2.32,2.32,0,0,0,3.92,0l3-4.07L58,35.84l3-4.06C62.06,30.33,61.47,29.15,59.67,29.15Z"/></svg>